<?xml version="1.0" encoding="UTF-8" standalone="no"?>
<!DOCTYPE svg PUBLIC "-//W3C//DTD SVG 1.1//EN"
 "http://www.w3.org/Graphics/SVG/1.1/DTD/svg11.dtd">
<!-- Generated by graphviz version 2.44.0 (0)
 -->
<!-- Title: snakemake_dag Pages: 1 -->
<svg width="316pt" height="548pt"
 viewBox="0.00 0.00 316.00 548.00" xmlns="http://www.w3.org/2000/svg" xmlns:xlink="http://www.w3.org/1999/xlink">
<g id="graph0" class="graph" transform="scale(1 1) rotate(0) translate(4 544)">
<title>snakemake_dag</title>
<polygon fill="white" stroke="transparent" points="-4,4 -4,-544 312,-544 312,4 -4,4"/>
<!-- 0 -->
<g id="node1" class="node">
<title>0</title>
<path fill="none" stroke="#5692d8" stroke-width="2" d="M159,-36C159,-36 117,-36 117,-36 111,-36 105,-30 105,-24 105,-24 105,-12 105,-12 105,-6 111,0 117,0 117,0 159,0 159,0 165,0 171,-6 171,-12 171,-12 171,-24 171,-24 171,-30 165,-36 159,-36"/>
<text text-anchor="middle" x="138" y="-15.5" font-family="sans" font-size="10.00">targetfiles</text>
</g>
<!-- 1 -->
<g id="node2" class="node">
<title>1</title>
<path fill="none" stroke="#56d8a9" stroke-width="2" d="M102,-180C102,-180 12,-180 12,-180 6,-180 0,-174 0,-168 0,-168 0,-156 0,-156 0,-150 6,-144 12,-144 12,-144 102,-144 102,-144 108,-144 114,-150 114,-156 114,-156 114,-168 114,-168 114,-174 108,-180 102,-180"/>
<text text-anchor="middle" x="57" y="-159.5" font-family="sans" font-size="10.00">read_info_summary</text>
</g>
<!-- 1&#45;&gt;0 -->
<g id="edge1" class="edge">
<title>1&#45;&gt;0</title>
<path fill="none" stroke="grey" stroke-width="2" d="M66.77,-143.87C80.82,-119.24 106.83,-73.64 123.23,-44.88"/>
<polygon fill="grey" stroke="grey" stroke-width="2" points="126.28,-46.61 128.19,-36.19 120.2,-43.14 126.28,-46.61"/>
</g>
<!-- 2 -->
<g id="node3" class="node">
<title>2</title>
<path fill="none" stroke="#56d873" stroke-width="2" d="M216,-108C216,-108 172,-108 172,-108 166,-108 160,-102 160,-96 160,-96 160,-84 160,-84 160,-78 166,-72 172,-72 172,-72 216,-72 216,-72 222,-72 228,-78 228,-84 228,-84 228,-96 228,-96 228,-102 222,-108 216,-108"/>
<text text-anchor="middle" x="194" y="-87.5" font-family="sans" font-size="10.00">filter_pairs</text>
</g>
<!-- 2&#45;&gt;0 -->
<g id="edge2" class="edge">
<title>2&#45;&gt;0</title>
<path fill="none" stroke="grey" stroke-width="2" d="M180.16,-71.7C173.51,-63.39 165.42,-53.28 158.11,-44.14"/>
<polygon fill="grey" stroke="grey" stroke-width="2" points="160.66,-41.73 151.68,-36.1 155.2,-46.1 160.66,-41.73"/>
</g>
<!-- 3 -->
<g id="node4" class="node">
<title>3</title>
<path fill="none" stroke="#d85656" stroke-width="2" d="M122,-468C122,-468 68,-468 68,-468 62,-468 56,-462 56,-456 56,-456 56,-444 56,-444 56,-438 62,-432 68,-432 68,-432 122,-432 122,-432 128,-432 134,-438 134,-444 134,-444 134,-456 134,-456 134,-462 128,-468 122,-468"/>
<text text-anchor="middle" x="95" y="-447.5" font-family="sans" font-size="10.00">parse_select</text>
</g>
<!-- 3&#45;&gt;1 -->
<g id="edge3" class="edge">
<title>3&#45;&gt;1</title>
<path fill="none" stroke="grey" stroke-width="2" d="M92.74,-431.97C86.39,-384.19 68.38,-248.62 60.62,-190.27"/>
<polygon fill="grey" stroke="grey" stroke-width="2" points="64.09,-189.76 59.3,-180.31 57.15,-190.68 64.09,-189.76"/>
</g>
<!-- 4 -->
<g id="node5" class="node">
<title>4</title>
<path fill="none" stroke="#afd856" stroke-width="2" d="M146,-252C146,-252 116,-252 116,-252 110,-252 104,-246 104,-240 104,-240 104,-228 104,-228 104,-222 110,-216 116,-216 116,-216 146,-216 146,-216 152,-216 158,-222 158,-228 158,-228 158,-240 158,-240 158,-246 152,-252 146,-252"/>
<text text-anchor="middle" x="131" y="-231.5" font-family="sans" font-size="10.00">dedup</text>
</g>
<!-- 3&#45;&gt;4 -->
<g id="edge7" class="edge">
<title>3&#45;&gt;4</title>
<path fill="none" stroke="grey" stroke-width="2" d="M95.93,-431.9C97.79,-402.3 102.77,-339.71 114,-288 115.87,-279.41 118.55,-270.23 121.24,-261.96"/>
<polygon fill="grey" stroke="grey" stroke-width="2" points="124.58,-263.03 124.47,-252.43 117.95,-260.78 124.58,-263.03"/>
</g>
<!-- 8 -->
<g id="node9" class="node">
<title>8</title>
<path fill="none" stroke="#d8cb56" stroke-width="2" d="M165,-396C165,-396 135,-396 135,-396 129,-396 123,-390 123,-384 123,-384 123,-372 123,-372 123,-366 129,-360 135,-360 135,-360 165,-360 165,-360 171,-360 177,-366 177,-372 177,-372 177,-384 177,-384 177,-390 171,-396 165,-396"/>
<text text-anchor="middle" x="150" y="-375.5" font-family="sans" font-size="10.00">flip</text>
</g>
<!-- 3&#45;&gt;8 -->
<g id="edge11" class="edge">
<title>3&#45;&gt;8</title>
<path fill="none" stroke="grey" stroke-width="2" d="M108.6,-431.7C115.12,-423.39 123.07,-413.28 130.25,-404.14"/>
<polygon fill="grey" stroke="grey" stroke-width="2" points="133.13,-406.13 136.56,-396.1 127.63,-401.81 133.13,-406.13"/>
</g>
<!-- 4&#45;&gt;1 -->
<g id="edge4" class="edge">
<title>4&#45;&gt;1</title>
<path fill="none" stroke="grey" stroke-width="2" d="M112.71,-215.7C103.57,-207.05 92.36,-196.45 82.4,-187.03"/>
<polygon fill="grey" stroke="grey" stroke-width="2" points="84.75,-184.43 75.08,-180.1 79.94,-189.52 84.75,-184.43"/>
</g>
<!-- 5 -->
<g id="node6" class="node">
<title>5</title>
<path fill="none" stroke="#70d856" stroke-width="2" d="M296,-180C296,-180 144,-180 144,-180 138,-180 132,-174 132,-168 132,-168 132,-156 132,-156 132,-150 138,-144 144,-144 144,-144 296,-144 296,-144 302,-144 308,-150 308,-156 308,-156 308,-168 308,-168 308,-174 302,-180 296,-180"/>
<text text-anchor="middle" x="220" y="-159.5" font-family="sans" font-size="10.00">extract_barcode_based_on_knee</text>
</g>
<!-- 4&#45;&gt;5 -->
<g id="edge9" class="edge">
<title>4&#45;&gt;5</title>
<path fill="none" stroke="grey" stroke-width="2" d="M153,-215.7C164.21,-206.88 178,-196.03 190.15,-186.47"/>
<polygon fill="grey" stroke="grey" stroke-width="2" points="192.56,-189.04 198.25,-180.1 188.23,-183.54 192.56,-189.04"/>
</g>
<!-- 5&#45;&gt;2 -->
<g id="edge5" class="edge">
<title>5&#45;&gt;2</title>
<path fill="none" stroke="grey" stroke-width="2" d="M213.57,-143.7C210.64,-135.81 207.11,-126.3 203.86,-117.55"/>
<polygon fill="grey" stroke="grey" stroke-width="2" points="207.12,-116.26 200.35,-108.1 200.55,-118.7 207.12,-116.26"/>
</g>
<!-- 6 -->
<g id="node7" class="node">
<title>6</title>
<path fill="none" stroke="#d88d56" stroke-width="2" d="M110,-540C110,-540 80,-540 80,-540 74,-540 68,-534 68,-528 68,-528 68,-516 68,-516 68,-510 74,-504 80,-504 80,-504 110,-504 110,-504 116,-504 122,-510 122,-516 122,-516 122,-528 122,-528 122,-534 116,-540 110,-540"/>
<text text-anchor="middle" x="95" y="-519.5" font-family="sans" font-size="10.00">align</text>
</g>
<!-- 6&#45;&gt;3 -->
<g id="edge6" class="edge">
<title>6&#45;&gt;3</title>
<path fill="none" stroke="grey" stroke-width="2" d="M95,-503.7C95,-495.98 95,-486.71 95,-478.11"/>
<polygon fill="grey" stroke="grey" stroke-width="2" points="98.5,-478.1 95,-468.1 91.5,-478.1 98.5,-478.1"/>
</g>
<!-- 7 -->
<g id="node8" class="node">
<title>7</title>
<path fill="none" stroke="#56c9d8" stroke-width="2" d="M165,-324C165,-324 135,-324 135,-324 129,-324 123,-318 123,-312 123,-312 123,-300 123,-300 123,-294 129,-288 135,-288 135,-288 165,-288 165,-288 171,-288 177,-294 177,-300 177,-300 177,-312 177,-312 177,-318 171,-324 165,-324"/>
<text text-anchor="middle" x="150" y="-303.5" font-family="sans" font-size="10.00">sort</text>
</g>
<!-- 7&#45;&gt;4 -->
<g id="edge8" class="edge">
<title>7&#45;&gt;4</title>
<path fill="none" stroke="grey" stroke-width="2" d="M145.3,-287.7C143.19,-279.9 140.64,-270.51 138.28,-261.83"/>
<polygon fill="grey" stroke="grey" stroke-width="2" points="141.64,-260.84 135.64,-252.1 134.88,-262.67 141.64,-260.84"/>
</g>
<!-- 8&#45;&gt;7 -->
<g id="edge10" class="edge">
<title>8&#45;&gt;7</title>
<path fill="none" stroke="grey" stroke-width="2" d="M150,-359.7C150,-351.98 150,-342.71 150,-334.11"/>
<polygon fill="grey" stroke="grey" stroke-width="2" points="153.5,-334.1 150,-324.1 146.5,-334.1 153.5,-334.1"/>
</g>
</g>
</svg>
