<?xml version="1.0" encoding="UTF-8" standalone="no"?>
<!DOCTYPE svg PUBLIC "-//W3C//DTD SVG 1.1//EN"
 "http://www.w3.org/Graphics/SVG/1.1/DTD/svg11.dtd">
<!-- Generated by graphviz version 2.44.0 (0)
 -->
<!-- Title: snakemake_dag Pages: 1 -->
<svg width="265pt" height="548pt"
 viewBox="0.00 0.00 265.00 548.00" xmlns="http://www.w3.org/2000/svg" xmlns:xlink="http://www.w3.org/1999/xlink">
<g id="graph0" class="graph" transform="scale(1 1) rotate(0) translate(4 544)">
<title>snakemake_dag</title>
<polygon fill="white" stroke="transparent" points="-4,4 -4,-544 261,-544 261,4 -4,4"/>
<!-- 0 -->
<g id="node1" class="node">
<title>0</title>
<path fill="none" stroke="#d85656" stroke-width="2" d="M127,-36C127,-36 85,-36 85,-36 79,-36 73,-30 73,-24 73,-24 73,-12 73,-12 73,-6 79,0 85,0 85,0 127,0 127,0 133,0 139,-6 139,-12 139,-12 139,-24 139,-24 139,-30 133,-36 127,-36"/>
<text text-anchor="middle" x="106" y="-15.5" font-family="sans" font-size="10.00">targetfiles</text>
</g>
<!-- 1 -->
<g id="node2" class="node">
<title>1</title>
<path fill="none" stroke="#5692d8" stroke-width="2" d="M131,-108C131,-108 81,-108 81,-108 75,-108 69,-102 69,-96 69,-96 69,-84 69,-84 69,-78 75,-72 81,-72 81,-72 131,-72 131,-72 137,-72 143,-78 143,-84 143,-84 143,-96 143,-96 143,-102 137,-108 131,-108"/>
<text text-anchor="middle" x="106" y="-87.5" font-family="sans" font-size="10.00">remove_ME</text>
</g>
<!-- 1&#45;&gt;0 -->
<g id="edge1" class="edge">
<title>1&#45;&gt;0</title>
<path fill="none" stroke="grey" stroke-width="2" d="M106,-71.7C106,-63.98 106,-54.71 106,-46.11"/>
<polygon fill="grey" stroke="grey" stroke-width="2" points="109.5,-46.1 106,-36.1 102.5,-46.1 109.5,-46.1"/>
</g>
<!-- 2 -->
<g id="node3" class="node">
<title>2</title>
<path fill="none" stroke="#70d856" stroke-width="2" d="M85,-180C85,-180 27,-180 27,-180 21,-180 15,-174 15,-168 15,-168 15,-156 15,-156 15,-150 21,-144 27,-144 27,-144 85,-144 85,-144 91,-144 97,-150 97,-156 97,-156 97,-168 97,-168 97,-174 91,-180 85,-180"/>
<text text-anchor="middle" x="56" y="-159.5" font-family="sans" font-size="10.00">compress_R1</text>
</g>
<!-- 2&#45;&gt;1 -->
<g id="edge3" class="edge">
<title>2&#45;&gt;1</title>
<path fill="none" stroke="grey" stroke-width="2" d="M68.36,-143.7C74.23,-135.47 81.37,-125.48 87.84,-116.42"/>
<polygon fill="grey" stroke="grey" stroke-width="2" points="90.82,-118.28 93.78,-108.1 85.12,-114.21 90.82,-118.28"/>
</g>
<!-- 3 -->
<g id="node4" class="node">
<title>3</title>
<path fill="none" stroke="#56c9d8" stroke-width="2" d="M185,-180C185,-180 127,-180 127,-180 121,-180 115,-174 115,-168 115,-168 115,-156 115,-156 115,-150 121,-144 127,-144 127,-144 185,-144 185,-144 191,-144 197,-150 197,-156 197,-156 197,-168 197,-168 197,-174 191,-180 185,-180"/>
<text text-anchor="middle" x="156" y="-159.5" font-family="sans" font-size="10.00">compress_R2</text>
</g>
<!-- 3&#45;&gt;1 -->
<g id="edge2" class="edge">
<title>3&#45;&gt;1</title>
<path fill="none" stroke="grey" stroke-width="2" d="M143.64,-143.7C137.77,-135.47 130.63,-125.48 124.16,-116.42"/>
<polygon fill="grey" stroke="grey" stroke-width="2" points="126.88,-114.21 118.22,-108.1 121.18,-118.28 126.88,-114.21"/>
</g>
<!-- 4 -->
<g id="node5" class="node">
<title>4</title>
<path fill="none" stroke="#56d8a9" stroke-width="2" d="M149,-252C149,-252 63,-252 63,-252 57,-252 51,-246 51,-240 51,-240 51,-228 51,-228 51,-222 57,-216 63,-216 63,-216 149,-216 149,-216 155,-216 161,-222 161,-228 161,-228 161,-240 161,-240 161,-246 155,-252 149,-252"/>
<text text-anchor="middle" x="106" y="-231.5" font-family="sans" font-size="10.00">barcode_correction</text>
</g>
<!-- 4&#45;&gt;2 -->
<g id="edge4" class="edge">
<title>4&#45;&gt;2</title>
<path fill="none" stroke="grey" stroke-width="2" d="M93.64,-215.7C87.77,-207.47 80.63,-197.48 74.16,-188.42"/>
<polygon fill="grey" stroke="grey" stroke-width="2" points="76.88,-186.21 68.22,-180.1 71.18,-190.28 76.88,-186.21"/>
</g>
<!-- 4&#45;&gt;3 -->
<g id="edge5" class="edge">
<title>4&#45;&gt;3</title>
<path fill="none" stroke="grey" stroke-width="2" d="M118.36,-215.7C124.23,-207.47 131.37,-197.48 137.84,-188.42"/>
<polygon fill="grey" stroke="grey" stroke-width="2" points="140.82,-190.28 143.78,-180.1 135.12,-186.21 140.82,-190.28"/>
</g>
<!-- 5 -->
<g id="node6" class="node">
<title>5</title>
<path fill="none" stroke="#afd856" stroke-width="2" d="M148,-468C148,-468 12,-468 12,-468 6,-468 0,-462 0,-456 0,-456 0,-444 0,-444 0,-438 6,-432 12,-432 12,-432 148,-432 148,-432 154,-432 160,-438 160,-444 160,-444 160,-456 160,-456 160,-462 154,-468 148,-468"/>
<text text-anchor="middle" x="80" y="-447.5" font-family="sans" font-size="10.00">move_barcode_to_readName</text>
</g>
<!-- 5&#45;&gt;4 -->
<g id="edge7" class="edge">
<title>5&#45;&gt;4</title>
<path fill="none" stroke="grey" stroke-width="2" d="M74.01,-431.54C64.65,-401.4 49.24,-338.01 66,-288 69.35,-278 75.42,-268.38 81.83,-260.14"/>
<polygon fill="grey" stroke="grey" stroke-width="2" points="84.56,-262.33 88.27,-252.4 79.18,-257.85 84.56,-262.33"/>
</g>
<!-- 8 -->
<g id="node9" class="node">
<title>8</title>
<path fill="none" stroke="#d88d56" stroke-width="2" d="M164.5,-396C164.5,-396 113.5,-396 113.5,-396 107.5,-396 101.5,-390 101.5,-384 101.5,-384 101.5,-372 101.5,-372 101.5,-366 107.5,-360 113.5,-360 113.5,-360 164.5,-360 164.5,-360 170.5,-360 176.5,-366 176.5,-372 176.5,-372 176.5,-384 176.5,-384 176.5,-390 170.5,-396 164.5,-396"/>
<text text-anchor="middle" x="139" y="-375.5" font-family="sans" font-size="10.00">barcode_QC</text>
</g>
<!-- 5&#45;&gt;8 -->
<g id="edge10" class="edge">
<title>5&#45;&gt;8</title>
<path fill="none" stroke="grey" stroke-width="2" d="M94.58,-431.7C101.66,-423.3 110.28,-413.07 118.05,-403.86"/>
<polygon fill="grey" stroke="grey" stroke-width="2" points="120.81,-406.01 124.58,-396.1 115.46,-401.49 120.81,-406.01"/>
</g>
<!-- 6 -->
<g id="node7" class="node">
<title>6</title>
<path fill="none" stroke="#d8cb56" stroke-width="2" d="M245,-324C245,-324 87,-324 87,-324 81,-324 75,-318 75,-312 75,-312 75,-300 75,-300 75,-294 81,-288 87,-288 87,-288 245,-288 245,-288 251,-288 257,-294 257,-300 257,-300 257,-312 257,-312 257,-318 251,-324 245,-324"/>
<text text-anchor="middle" x="166" y="-303.5" font-family="sans" font-size="10.00">compare_barcodes_with_whitelist</text>
</g>
<!-- 6&#45;&gt;4 -->
<g id="edge6" class="edge">
<title>6&#45;&gt;4</title>
<path fill="none" stroke="grey" stroke-width="2" d="M151.17,-287.7C143.98,-279.3 135.2,-269.07 127.31,-259.86"/>
<polygon fill="grey" stroke="grey" stroke-width="2" points="129.83,-257.42 120.66,-252.1 124.51,-261.97 129.83,-257.42"/>
</g>
<!-- 7 -->
<g id="node8" class="node">
<title>7</title>
<path fill="none" stroke="#56d873" stroke-width="2" d="M133.5,-540C133.5,-540 26.5,-540 26.5,-540 20.5,-540 14.5,-534 14.5,-528 14.5,-528 14.5,-516 14.5,-516 14.5,-510 20.5,-504 26.5,-504 26.5,-504 133.5,-504 133.5,-504 139.5,-504 145.5,-510 145.5,-516 145.5,-516 145.5,-528 145.5,-528 145.5,-534 139.5,-540 133.5,-540"/>
<text text-anchor="middle" x="80" y="-519.5" font-family="sans" font-size="10.00">cut_specific_sequences</text>
</g>
<!-- 7&#45;&gt;5 -->
<g id="edge8" class="edge">
<title>7&#45;&gt;5</title>
<path fill="none" stroke="grey" stroke-width="2" d="M80,-503.7C80,-495.98 80,-486.71 80,-478.11"/>
<polygon fill="grey" stroke="grey" stroke-width="2" points="83.5,-478.1 80,-468.1 76.5,-478.1 83.5,-478.1"/>
</g>
<!-- 8&#45;&gt;6 -->
<g id="edge9" class="edge">
<title>8&#45;&gt;6</title>
<path fill="none" stroke="grey" stroke-width="2" d="M145.67,-359.7C148.71,-351.81 152.38,-342.3 155.76,-333.55"/>
<polygon fill="grey" stroke="grey" stroke-width="2" points="159.07,-334.69 159.4,-324.1 152.54,-332.17 159.07,-334.69"/>
</g>
</g>
</svg>
