<?xml version="1.0" encoding="UTF-8" standalone="no"?>
<!DOCTYPE svg PUBLIC "-//W3C//DTD SVG 1.1//EN"
 "http://www.w3.org/Graphics/SVG/1.1/DTD/svg11.dtd">
<!-- Generated by graphviz version 2.44.0 (0)
 -->
<!-- Title: snakemake_dag Pages: 1 -->
<svg width="775pt" height="764pt"
 viewBox="0.00 0.00 775.00 764.00" xmlns="http://www.w3.org/2000/svg" xmlns:xlink="http://www.w3.org/1999/xlink">
<g id="graph0" class="graph" transform="scale(1 1) rotate(0) translate(4 760)">
<title>snakemake_dag</title>
<polygon fill="white" stroke="transparent" points="-4,4 -4,-760 771,-760 771,4 -4,4"/>
<!-- 0 -->
<g id="node1" class="node">
<title>0</title>
<path fill="none" stroke="#5673d8" stroke-width="2" d="M266,-36C266,-36 224,-36 224,-36 218,-36 212,-30 212,-24 212,-24 212,-12 212,-12 212,-6 218,0 224,0 224,0 266,0 266,0 272,0 278,-6 278,-12 278,-12 278,-24 278,-24 278,-30 272,-36 266,-36"/>
<text text-anchor="middle" x="245" y="-15.5" font-family="sans" font-size="10.00">targetfiles</text>
</g>
<!-- 1 -->
<g id="node2" class="node">
<title>1</title>
<path fill="none" stroke="#56d87b" stroke-width="2" d="M90,-108C90,-108 12,-108 12,-108 6,-108 0,-102 0,-96 0,-96 0,-84 0,-84 0,-78 6,-72 12,-72 12,-72 90,-72 90,-72 96,-72 102,-78 102,-84 102,-84 102,-96 102,-96 102,-102 96,-108 90,-108"/>
<text text-anchor="middle" x="51" y="-87.5" font-family="sans" font-size="10.00">compress_R1_ME</text>
</g>
<!-- 1&#45;&gt;0 -->
<g id="edge1" class="edge">
<title>1&#45;&gt;0</title>
<path fill="none" stroke="grey" stroke-width="2" d="M98.46,-71.88C130.14,-60.44 171.46,-45.53 202.14,-34.46"/>
<polygon fill="grey" stroke="grey" stroke-width="2" points="203.49,-37.7 211.71,-31.01 201.11,-31.11 203.49,-37.7"/>
</g>
<!-- 2 -->
<g id="node3" class="node">
<title>2</title>
<path fill="none" stroke="#56d8c9" stroke-width="2" d="M210,-108C210,-108 132,-108 132,-108 126,-108 120,-102 120,-96 120,-96 120,-84 120,-84 120,-78 126,-72 132,-72 132,-72 210,-72 210,-72 216,-72 222,-78 222,-84 222,-84 222,-96 222,-96 222,-102 216,-108 210,-108"/>
<text text-anchor="middle" x="171" y="-87.5" font-family="sans" font-size="10.00">compress_R2_ME</text>
</g>
<!-- 2&#45;&gt;0 -->
<g id="edge4" class="edge">
<title>2&#45;&gt;0</title>
<path fill="none" stroke="grey" stroke-width="2" d="M189.29,-71.7C198.43,-63.05 209.64,-52.45 219.6,-43.03"/>
<polygon fill="grey" stroke="grey" stroke-width="2" points="222.06,-45.52 226.92,-36.1 217.25,-40.43 222.06,-45.52"/>
</g>
<!-- 3 -->
<g id="node4" class="node">
<title>3</title>
<path fill="none" stroke="#97d856" stroke-width="2" d="M386,-108C386,-108 252,-108 252,-108 246,-108 240,-102 240,-96 240,-96 240,-84 240,-84 240,-78 246,-72 252,-72 252,-72 386,-72 386,-72 392,-72 398,-78 398,-84 398,-84 398,-96 398,-96 398,-102 392,-108 386,-108"/>
<text text-anchor="middle" x="319" y="-87.5" font-family="sans" font-size="10.00">merge_randomN_oligodT_R1</text>
</g>
<!-- 3&#45;&gt;0 -->
<g id="edge3" class="edge">
<title>3&#45;&gt;0</title>
<path fill="none" stroke="grey" stroke-width="2" d="M300.71,-71.7C291.57,-63.05 280.36,-52.45 270.4,-43.03"/>
<polygon fill="grey" stroke="grey" stroke-width="2" points="272.75,-40.43 263.08,-36.1 267.94,-45.52 272.75,-40.43"/>
</g>
<!-- 4 -->
<g id="node5" class="node">
<title>4</title>
<path fill="none" stroke="#56b9d8" stroke-width="2" d="M562,-108C562,-108 428,-108 428,-108 422,-108 416,-102 416,-96 416,-96 416,-84 416,-84 416,-78 422,-72 428,-72 428,-72 562,-72 562,-72 568,-72 574,-78 574,-84 574,-84 574,-96 574,-96 574,-102 568,-108 562,-108"/>
<text text-anchor="middle" x="495" y="-87.5" font-family="sans" font-size="10.00">merge_randomN_oligodT_R2</text>
</g>
<!-- 4&#45;&gt;0 -->
<g id="edge2" class="edge">
<title>4&#45;&gt;0</title>
<path fill="none" stroke="grey" stroke-width="2" d="M434.16,-71.97C388.86,-59.28 328.13,-42.28 287.84,-31"/>
<polygon fill="grey" stroke="grey" stroke-width="2" points="288.64,-27.58 278.06,-28.26 286.75,-34.32 288.64,-27.58"/>
</g>
<!-- 5 -->
<g id="node6" class="node">
<title>5</title>
<path fill="none" stroke="#d8bc56" stroke-width="2" d="M169.5,-252C169.5,-252 30.5,-252 30.5,-252 24.5,-252 18.5,-246 18.5,-240 18.5,-240 18.5,-228 18.5,-228 18.5,-222 24.5,-216 30.5,-216 30.5,-216 169.5,-216 169.5,-216 175.5,-216 181.5,-222 181.5,-228 181.5,-228 181.5,-240 181.5,-240 181.5,-246 175.5,-252 169.5,-252"/>
<text text-anchor="middle" x="100" y="-231.5" font-family="sans" font-size="10.00">read1_barcode_correction_ME</text>
</g>
<!-- 5&#45;&gt;1 -->
<g id="edge5" class="edge">
<title>5&#45;&gt;1</title>
<path fill="none" stroke="grey" stroke-width="2" d="M94.09,-215.87C85.7,-191.56 70.26,-146.82 60.32,-118.01"/>
<polygon fill="grey" stroke="grey" stroke-width="2" points="63.5,-116.5 56.93,-108.19 56.88,-118.78 63.5,-116.5"/>
</g>
<!-- 5&#45;&gt;2 -->
<g id="edge6" class="edge">
<title>5&#45;&gt;2</title>
<path fill="none" stroke="grey" stroke-width="2" d="M108.56,-215.87C120.82,-191.35 143.48,-146.03 157.87,-117.26"/>
<polygon fill="grey" stroke="grey" stroke-width="2" points="161.06,-118.7 162.41,-108.19 154.8,-115.57 161.06,-118.7"/>
</g>
<!-- 6 -->
<g id="node7" class="node">
<title>6</title>
<path fill="none" stroke="#78d856" stroke-width="2" d="M605,-180C605,-180 497,-180 497,-180 491,-180 485,-174 485,-168 485,-168 485,-156 485,-156 485,-150 491,-144 497,-144 497,-144 605,-144 605,-144 611,-144 617,-150 617,-156 617,-156 617,-168 617,-168 617,-174 611,-180 605,-180"/>
<text text-anchor="middle" x="551" y="-159.5" font-family="sans" font-size="10.00">compress_R1_randomN</text>
</g>
<!-- 6&#45;&gt;3 -->
<g id="edge7" class="edge">
<title>6&#45;&gt;3</title>
<path fill="none" stroke="grey" stroke-width="2" d="M494.54,-143.97C461.7,-134.06 420.13,-121.51 385.69,-111.12"/>
<polygon fill="grey" stroke="grey" stroke-width="2" points="386.29,-107.65 375.71,-108.11 384.27,-114.35 386.29,-107.65"/>
</g>
<!-- 7 -->
<g id="node8" class="node">
<title>7</title>
<path fill="none" stroke="#d85656" stroke-width="2" d="M313.5,-180C313.5,-180 214.5,-180 214.5,-180 208.5,-180 202.5,-174 202.5,-168 202.5,-168 202.5,-156 202.5,-156 202.5,-150 208.5,-144 214.5,-144 214.5,-144 313.5,-144 313.5,-144 319.5,-144 325.5,-150 325.5,-156 325.5,-156 325.5,-168 325.5,-168 325.5,-174 319.5,-180 313.5,-180"/>
<text text-anchor="middle" x="264" y="-159.5" font-family="sans" font-size="10.00">compress_R1_oligodT</text>
</g>
<!-- 7&#45;&gt;3 -->
<g id="edge8" class="edge">
<title>7&#45;&gt;3</title>
<path fill="none" stroke="grey" stroke-width="2" d="M277.6,-143.7C284.12,-135.39 292.07,-125.28 299.25,-116.14"/>
<polygon fill="grey" stroke="grey" stroke-width="2" points="302.13,-118.13 305.56,-108.1 296.63,-113.81 302.13,-118.13"/>
</g>
<!-- 8 -->
<g id="node9" class="node">
<title>8</title>
<path fill="none" stroke="#d8d356" stroke-width="2" d="M755,-180C755,-180 647,-180 647,-180 641,-180 635,-174 635,-168 635,-168 635,-156 635,-156 635,-150 641,-144 647,-144 647,-144 755,-144 755,-144 761,-144 767,-150 767,-156 767,-156 767,-168 767,-168 767,-174 761,-180 755,-180"/>
<text text-anchor="middle" x="701" y="-159.5" font-family="sans" font-size="10.00">compress_R2_randomN</text>
</g>
<!-- 8&#45;&gt;4 -->
<g id="edge9" class="edge">
<title>8&#45;&gt;4</title>
<path fill="none" stroke="grey" stroke-width="2" d="M650.87,-143.97C621.96,-134.14 585.43,-121.73 555,-111.39"/>
<polygon fill="grey" stroke="grey" stroke-width="2" points="555.95,-108.01 545.35,-108.11 553.7,-114.64 555.95,-108.01"/>
</g>
<!-- 9 -->
<g id="node10" class="node">
<title>9</title>
<path fill="none" stroke="#c6d856" stroke-width="2" d="M454.5,-180C454.5,-180 355.5,-180 355.5,-180 349.5,-180 343.5,-174 343.5,-168 343.5,-168 343.5,-156 343.5,-156 343.5,-150 349.5,-144 355.5,-144 355.5,-144 454.5,-144 454.5,-144 460.5,-144 466.5,-150 466.5,-156 466.5,-156 466.5,-168 466.5,-168 466.5,-174 460.5,-180 454.5,-180"/>
<text text-anchor="middle" x="405" y="-159.5" font-family="sans" font-size="10.00">compress_R2_oligodT</text>
</g>
<!-- 9&#45;&gt;4 -->
<g id="edge10" class="edge">
<title>9&#45;&gt;4</title>
<path fill="none" stroke="grey" stroke-width="2" d="M427.25,-143.7C438.58,-134.88 452.53,-124.03 464.82,-114.47"/>
<polygon fill="grey" stroke="grey" stroke-width="2" points="467.26,-117.01 473.01,-108.1 462.97,-111.48 467.26,-117.01"/>
</g>
<!-- 10 -->
<g id="node11" class="node">
<title>10</title>
<path fill="none" stroke="#d86e56" stroke-width="2" d="M624,-468C624,-468 442,-468 442,-468 436,-468 430,-462 430,-456 430,-456 430,-444 430,-444 430,-438 436,-432 442,-432 442,-432 624,-432 624,-432 630,-432 636,-438 636,-444 636,-444 636,-456 636,-456 636,-462 630,-468 624,-468"/>
<text text-anchor="middle" x="533" y="-447.5" font-family="sans" font-size="10.00">split_fq_with_oligdT_random_hexamer</text>
</g>
<!-- 10&#45;&gt;5 -->
<g id="edge12" class="edge">
<title>10&#45;&gt;5</title>
<path fill="none" stroke="grey" stroke-width="2" d="M429.73,-436.45C304.31,-418.85 103.9,-382.27 59,-324 44.01,-304.54 58.97,-278.73 74.86,-259.91"/>
<polygon fill="grey" stroke="grey" stroke-width="2" points="77.6,-262.1 81.65,-252.31 72.37,-257.44 77.6,-262.1"/>
</g>
<!-- 12 -->
<g id="node13" class="node">
<title>12</title>
<path fill="none" stroke="#56d863" stroke-width="2" d="M660.5,-252C660.5,-252 491.5,-252 491.5,-252 485.5,-252 479.5,-246 479.5,-240 479.5,-240 479.5,-228 479.5,-228 479.5,-222 485.5,-216 491.5,-216 491.5,-216 660.5,-216 660.5,-216 666.5,-216 672.5,-222 672.5,-228 672.5,-228 672.5,-240 672.5,-240 672.5,-246 666.5,-252 660.5,-252"/>
<text text-anchor="middle" x="576" y="-231.5" font-family="sans" font-size="10.00">read1_barcode_correction_randomN</text>
</g>
<!-- 10&#45;&gt;12 -->
<g id="edge20" class="edge">
<title>10&#45;&gt;12</title>
<path fill="none" stroke="grey" stroke-width="2" d="M581.03,-431.85C596.97,-423.6 612.94,-411.95 622,-396 645.72,-354.27 638.79,-332.97 622,-288 618.12,-277.62 611.2,-267.93 603.88,-259.74"/>
<polygon fill="grey" stroke="grey" stroke-width="2" points="606.27,-257.18 596.82,-252.38 601.22,-262.03 606.27,-257.18"/>
</g>
<!-- 13 -->
<g id="node14" class="node">
<title>13</title>
<path fill="none" stroke="#61d856" stroke-width="2" d="M423,-252C423,-252 263,-252 263,-252 257,-252 251,-246 251,-240 251,-240 251,-228 251,-228 251,-222 257,-216 263,-216 263,-216 423,-216 423,-216 429,-216 435,-222 435,-228 435,-228 435,-240 435,-240 435,-246 429,-252 423,-252"/>
<text text-anchor="middle" x="343" y="-231.5" font-family="sans" font-size="10.00">read1_barcode_correction_oligodT</text>
</g>
<!-- 10&#45;&gt;13 -->
<g id="edge22" class="edge">
<title>10&#45;&gt;13</title>
<path fill="none" stroke="grey" stroke-width="2" d="M548.65,-431.89C575.61,-400.31 624.6,-332.09 589,-288 579.51,-276.24 508.43,-261.72 445.1,-250.84"/>
<polygon fill="grey" stroke="grey" stroke-width="2" points="445.46,-247.36 435.01,-249.13 444.29,-254.26 445.46,-247.36"/>
</g>
<!-- 15 -->
<g id="node16" class="node">
<title>15</title>
<path fill="none" stroke="#568ad8" stroke-width="2" d="M409.5,-396C409.5,-396 358.5,-396 358.5,-396 352.5,-396 346.5,-390 346.5,-384 346.5,-384 346.5,-372 346.5,-372 346.5,-366 352.5,-360 358.5,-360 358.5,-360 409.5,-360 409.5,-360 415.5,-360 421.5,-366 421.5,-372 421.5,-372 421.5,-384 421.5,-384 421.5,-390 415.5,-396 409.5,-396"/>
<text text-anchor="middle" x="384" y="-375.5" font-family="sans" font-size="10.00">barcode_QC</text>
</g>
<!-- 10&#45;&gt;15 -->
<g id="edge24" class="edge">
<title>10&#45;&gt;15</title>
<path fill="none" stroke="grey" stroke-width="2" d="M496.55,-431.88C476.36,-422.39 451.08,-410.51 429.59,-400.42"/>
<polygon fill="grey" stroke="grey" stroke-width="2" points="430.87,-397.15 420.33,-396.07 427.89,-403.49 430.87,-397.15"/>
</g>
<!-- 11 -->
<g id="node12" class="node">
<title>11</title>
<path fill="none" stroke="#d88556" stroke-width="2" d="M188,-324C188,-324 80,-324 80,-324 74,-324 68,-318 68,-312 68,-312 68,-300 68,-300 68,-294 74,-288 80,-288 80,-288 188,-288 188,-288 194,-288 200,-294 200,-300 200,-300 200,-312 200,-312 200,-318 194,-324 188,-324"/>
<text text-anchor="middle" x="134" y="-303.5" font-family="sans" font-size="10.00">find_right_barcodes_ME</text>
</g>
<!-- 11&#45;&gt;5 -->
<g id="edge11" class="edge">
<title>11&#45;&gt;5</title>
<path fill="none" stroke="grey" stroke-width="2" d="M125.6,-287.7C121.73,-279.73 117.05,-270.1 112.76,-261.26"/>
<polygon fill="grey" stroke="grey" stroke-width="2" points="115.83,-259.57 108.31,-252.1 109.53,-262.63 115.83,-259.57"/>
</g>
<!-- 12&#45;&gt;6 -->
<g id="edge13" class="edge">
<title>12&#45;&gt;6</title>
<path fill="none" stroke="grey" stroke-width="2" d="M569.82,-215.7C567,-207.81 563.61,-198.3 560.48,-189.55"/>
<polygon fill="grey" stroke="grey" stroke-width="2" points="563.77,-188.34 557.11,-180.1 557.18,-190.7 563.77,-188.34"/>
</g>
<!-- 12&#45;&gt;8 -->
<g id="edge15" class="edge">
<title>12&#45;&gt;8</title>
<path fill="none" stroke="grey" stroke-width="2" d="M606.58,-215.88C623.07,-206.64 643.62,-195.13 661.34,-185.21"/>
<polygon fill="grey" stroke="grey" stroke-width="2" points="663.29,-188.13 670.3,-180.19 659.87,-182.02 663.29,-188.13"/>
</g>
<!-- 13&#45;&gt;7 -->
<g id="edge14" class="edge">
<title>13&#45;&gt;7</title>
<path fill="none" stroke="grey" stroke-width="2" d="M323.47,-215.7C313.62,-206.97 301.51,-196.24 290.8,-186.75"/>
<polygon fill="grey" stroke="grey" stroke-width="2" points="293.11,-184.12 283.3,-180.1 288.47,-189.36 293.11,-184.12"/>
</g>
<!-- 13&#45;&gt;9 -->
<g id="edge16" class="edge">
<title>13&#45;&gt;9</title>
<path fill="none" stroke="grey" stroke-width="2" d="M358.33,-215.7C365.76,-207.3 374.82,-197.07 382.98,-187.86"/>
<polygon fill="grey" stroke="grey" stroke-width="2" points="385.84,-189.91 389.85,-180.1 380.6,-185.27 385.84,-189.91"/>
</g>
<!-- 14 -->
<g id="node15" class="node">
<title>14</title>
<path fill="none" stroke="#56d8a9" stroke-width="2" d="M583.5,-540C583.5,-540 482.5,-540 482.5,-540 476.5,-540 470.5,-534 470.5,-528 470.5,-528 470.5,-516 470.5,-516 470.5,-510 476.5,-504 482.5,-504 482.5,-504 583.5,-504 583.5,-504 589.5,-504 595.5,-510 595.5,-516 595.5,-516 595.5,-528 595.5,-528 595.5,-534 589.5,-540 583.5,-540"/>
<text text-anchor="middle" x="533" y="-519.5" font-family="sans" font-size="10.00">cut_R2_polyA_adaptor</text>
</g>
<!-- 14&#45;&gt;10 -->
<g id="edge17" class="edge">
<title>14&#45;&gt;10</title>
<path fill="none" stroke="grey" stroke-width="2" d="M533,-503.7C533,-495.98 533,-486.71 533,-478.11"/>
<polygon fill="grey" stroke="grey" stroke-width="2" points="536.5,-478.1 533,-468.1 529.5,-478.1 536.5,-478.1"/>
</g>
<!-- 15&#45;&gt;11 -->
<g id="edge18" class="edge">
<title>15&#45;&gt;11</title>
<path fill="none" stroke="grey" stroke-width="2" d="M346.3,-366.44C308.94,-355.98 250.79,-339.7 204.79,-326.82"/>
<polygon fill="grey" stroke="grey" stroke-width="2" points="205.45,-323.37 194.88,-324.05 203.56,-330.11 205.45,-323.37"/>
</g>
<!-- 16 -->
<g id="node17" class="node">
<title>16</title>
<path fill="none" stroke="#afd856" stroke-width="2" d="M568,-324C568,-324 430,-324 430,-324 424,-324 418,-318 418,-312 418,-312 418,-300 418,-300 418,-294 424,-288 430,-288 430,-288 568,-288 568,-288 574,-288 580,-294 580,-300 580,-300 580,-312 580,-312 580,-318 574,-324 568,-324"/>
<text text-anchor="middle" x="499" y="-303.5" font-family="sans" font-size="10.00">find_right_barcodes_randomN</text>
</g>
<!-- 15&#45;&gt;16 -->
<g id="edge25" class="edge">
<title>15&#45;&gt;16</title>
<path fill="none" stroke="grey" stroke-width="2" d="M412.13,-359.88C427.17,-350.72 445.87,-339.34 462.06,-329.48"/>
<polygon fill="grey" stroke="grey" stroke-width="2" points="464.04,-332.38 470.76,-324.19 460.4,-326.4 464.04,-332.38"/>
</g>
<!-- 17 -->
<g id="node18" class="node">
<title>17</title>
<path fill="none" stroke="#d8a456" stroke-width="2" d="M388,-324C388,-324 230,-324 230,-324 224,-324 218,-318 218,-312 218,-312 218,-300 218,-300 218,-294 224,-288 230,-288 230,-288 388,-288 388,-288 394,-288 400,-294 400,-300 400,-300 400,-312 400,-312 400,-318 394,-324 388,-324"/>
<text text-anchor="middle" x="309" y="-303.5" font-family="sans" font-size="10.00">compare_barcodes_with_whitelist</text>
</g>
<!-- 15&#45;&gt;17 -->
<g id="edge26" class="edge">
<title>15&#45;&gt;17</title>
<path fill="none" stroke="grey" stroke-width="2" d="M365.46,-359.7C356.2,-351.05 344.84,-340.45 334.74,-331.03"/>
<polygon fill="grey" stroke="grey" stroke-width="2" points="337.02,-328.37 327.33,-324.1 332.25,-333.49 337.02,-328.37"/>
</g>
<!-- 16&#45;&gt;12 -->
<g id="edge19" class="edge">
<title>16&#45;&gt;12</title>
<path fill="none" stroke="grey" stroke-width="2" d="M518.03,-287.7C527.54,-279.05 539.21,-268.45 549.57,-259.03"/>
<polygon fill="grey" stroke="grey" stroke-width="2" points="552.14,-261.42 557.19,-252.1 547.43,-256.24 552.14,-261.42"/>
</g>
<!-- 17&#45;&gt;13 -->
<g id="edge21" class="edge">
<title>17&#45;&gt;13</title>
<path fill="none" stroke="grey" stroke-width="2" d="M317.4,-287.7C321.27,-279.73 325.95,-270.1 330.24,-261.26"/>
<polygon fill="grey" stroke="grey" stroke-width="2" points="333.47,-262.63 334.69,-252.1 327.17,-259.57 333.47,-262.63"/>
</g>
<!-- 18 -->
<g id="node19" class="node">
<title>18</title>
<path fill="none" stroke="#56a2d8" stroke-width="2" d="M584,-612C584,-612 482,-612 482,-612 476,-612 470,-606 470,-600 470,-600 470,-588 470,-588 470,-582 476,-576 482,-576 482,-576 584,-576 584,-576 590,-576 596,-582 596,-588 596,-588 596,-600 596,-600 596,-606 590,-612 584,-612"/>
<text text-anchor="middle" x="533" y="-591.5" font-family="sans" font-size="10.00">cut_R2_TSO_sequence</text>
</g>
<!-- 18&#45;&gt;14 -->
<g id="edge23" class="edge">
<title>18&#45;&gt;14</title>
<path fill="none" stroke="grey" stroke-width="2" d="M533,-575.7C533,-567.98 533,-558.71 533,-550.11"/>
<polygon fill="grey" stroke="grey" stroke-width="2" points="536.5,-550.1 533,-540.1 529.5,-550.1 536.5,-550.1"/>
</g>
<!-- 19 -->
<g id="node20" class="node">
<title>19</title>
<path fill="none" stroke="#56d0d8" stroke-width="2" d="M544.5,-684C544.5,-684 417.5,-684 417.5,-684 411.5,-684 405.5,-678 405.5,-672 405.5,-672 405.5,-660 405.5,-660 405.5,-654 411.5,-648 417.5,-648 417.5,-648 544.5,-648 544.5,-648 550.5,-648 556.5,-654 556.5,-660 556.5,-660 556.5,-672 556.5,-672 556.5,-678 550.5,-684 544.5,-684"/>
<text text-anchor="middle" x="481" y="-663.5" font-family="sans" font-size="10.00">move_barcode_to_5end_R1</text>
</g>
<!-- 19&#45;&gt;18 -->
<g id="edge28" class="edge">
<title>19&#45;&gt;18</title>
<path fill="none" stroke="grey" stroke-width="2" d="M493.85,-647.7C500.03,-639.39 507.54,-629.28 514.32,-620.14"/>
<polygon fill="grey" stroke="grey" stroke-width="2" points="517.14,-622.22 520.29,-612.1 511.52,-618.04 517.14,-622.22"/>
</g>
<!-- 20 -->
<g id="node21" class="node">
<title>20</title>
<path fill="none" stroke="#56d892" stroke-width="2" d="M586.5,-756C586.5,-756 479.5,-756 479.5,-756 473.5,-756 467.5,-750 467.5,-744 467.5,-744 467.5,-732 467.5,-732 467.5,-726 473.5,-720 479.5,-720 479.5,-720 586.5,-720 586.5,-720 592.5,-720 598.5,-726 598.5,-732 598.5,-732 598.5,-744 598.5,-744 598.5,-750 592.5,-756 586.5,-756"/>
<text text-anchor="middle" x="533" y="-735.5" font-family="sans" font-size="10.00">cut_specific_sequences</text>
</g>
<!-- 20&#45;&gt;18 -->
<g id="edge27" class="edge">
<title>20&#45;&gt;18</title>
<path fill="none" stroke="grey" stroke-width="2" d="M546.56,-719.97C553.56,-710.09 561.37,-697.05 565,-684 569.29,-668.59 569.29,-663.41 565,-648 562.33,-638.42 557.41,-628.84 552.22,-620.51"/>
<polygon fill="grey" stroke="grey" stroke-width="2" points="555.02,-618.41 546.56,-612.03 549.2,-622.29 555.02,-618.41"/>
</g>
<!-- 20&#45;&gt;19 -->
<g id="edge29" class="edge">
<title>20&#45;&gt;19</title>
<path fill="none" stroke="grey" stroke-width="2" d="M520.15,-719.7C513.97,-711.39 506.46,-701.28 499.68,-692.14"/>
<polygon fill="grey" stroke="grey" stroke-width="2" points="502.48,-690.04 493.71,-684.1 496.86,-694.22 502.48,-690.04"/>
</g>
</g>
</svg>
