<?xml version="1.0" encoding="UTF-8" standalone="no"?>
<!DOCTYPE svg PUBLIC "-//W3C//DTD SVG 1.1//EN"
 "http://www.w3.org/Graphics/SVG/1.1/DTD/svg11.dtd">
<!-- Generated by graphviz version 2.44.0 (0)
 -->
<!-- Title: snakemake_dag Pages: 1 -->
<svg width="206pt" height="404pt"
 viewBox="0.00 0.00 206.00 404.00" xmlns="http://www.w3.org/2000/svg" xmlns:xlink="http://www.w3.org/1999/xlink">
<g id="graph0" class="graph" transform="scale(1 1) rotate(0) translate(4 400)">
<title>snakemake_dag</title>
<polygon fill="white" stroke="transparent" points="-4,4 -4,-400 202,-400 202,4 -4,4"/>
<!-- 0 -->
<g id="node1" class="node">
<title>0</title>
<path fill="none" stroke="#d8ac56" stroke-width="2" d="M73,-36C73,-36 31,-36 31,-36 25,-36 19,-30 19,-24 19,-24 19,-12 19,-12 19,-6 25,0 31,0 31,0 73,0 73,0 79,0 85,-6 85,-12 85,-12 85,-24 85,-24 85,-30 79,-36 73,-36"/>
<text text-anchor="middle" x="52" y="-15.5" font-family="sans" font-size="10.00">targetfiles</text>
</g>
<!-- 1 -->
<g id="node2" class="node">
<title>1</title>
<path fill="none" stroke="#d85656" stroke-width="2" d="M83,-108C83,-108 21,-108 21,-108 15,-108 9,-102 9,-96 9,-96 9,-84 9,-84 9,-78 15,-72 21,-72 21,-72 83,-72 83,-72 89,-72 95,-78 95,-84 95,-84 95,-96 95,-96 95,-102 89,-108 83,-108"/>
<text text-anchor="middle" x="52" y="-87.5" font-family="sans" font-size="10.00">sort_fragment</text>
</g>
<!-- 1&#45;&gt;0 -->
<g id="edge1" class="edge">
<title>1&#45;&gt;0</title>
<path fill="none" stroke="grey" stroke-width="2" d="M52,-71.7C52,-63.98 52,-54.71 52,-46.11"/>
<polygon fill="grey" stroke="grey" stroke-width="2" points="55.5,-46.1 52,-36.1 48.5,-46.1 55.5,-46.1"/>
</g>
<!-- 2 -->
<g id="node3" class="node">
<title>2</title>
<path fill="none" stroke="#afd856" stroke-width="2" d="M84.5,-180C84.5,-180 19.5,-180 19.5,-180 13.5,-180 7.5,-174 7.5,-168 7.5,-168 7.5,-156 7.5,-156 7.5,-150 13.5,-144 19.5,-144 19.5,-144 84.5,-144 84.5,-144 90.5,-144 96.5,-150 96.5,-156 96.5,-156 96.5,-168 96.5,-168 96.5,-174 90.5,-180 84.5,-180"/>
<text text-anchor="middle" x="52" y="-159.5" font-family="sans" font-size="10.00">filter_fragment</text>
</g>
<!-- 2&#45;&gt;1 -->
<g id="edge2" class="edge">
<title>2&#45;&gt;1</title>
<path fill="none" stroke="grey" stroke-width="2" d="M52,-143.7C52,-135.98 52,-126.71 52,-118.11"/>
<polygon fill="grey" stroke="grey" stroke-width="2" points="55.5,-118.1 52,-108.1 48.5,-118.1 55.5,-118.1"/>
</g>
<!-- 3 -->
<g id="node4" class="node">
<title>3</title>
<path fill="none" stroke="#59d856" stroke-width="2" d="M92,-324C92,-324 12,-324 12,-324 6,-324 0,-318 0,-312 0,-312 0,-300 0,-300 0,-294 6,-288 12,-288 12,-288 92,-288 92,-288 98,-288 104,-294 104,-300 104,-300 104,-312 104,-312 104,-318 98,-324 92,-324"/>
<text text-anchor="middle" x="52" y="-303.5" font-family="sans" font-size="10.00">bam_to_fragment</text>
</g>
<!-- 3&#45;&gt;2 -->
<g id="edge3" class="edge">
<title>3&#45;&gt;2</title>
<path fill="none" stroke="grey" stroke-width="2" d="M35.11,-287.99C26.71,-278.31 17.42,-265.46 13,-252 8.01,-236.8 8.01,-231.2 13,-216 16.31,-205.91 22.37,-196.15 28.73,-187.82"/>
<polygon fill="grey" stroke="grey" stroke-width="2" points="31.5,-189.97 35.11,-180.01 26.08,-185.54 31.5,-189.97"/>
</g>
<!-- 4 -->
<g id="node5" class="node">
<title>4</title>
<path fill="none" stroke="#56d8a9" stroke-width="2" d="M186,-252C186,-252 34,-252 34,-252 28,-252 22,-246 22,-240 22,-240 22,-228 22,-228 22,-222 28,-216 34,-216 34,-216 186,-216 186,-216 192,-216 198,-222 198,-228 198,-228 198,-240 198,-240 198,-246 192,-252 186,-252"/>
<text text-anchor="middle" x="110" y="-231.5" font-family="sans" font-size="10.00">extract_barcode_based_on_knee</text>
</g>
<!-- 3&#45;&gt;4 -->
<g id="edge6" class="edge">
<title>3&#45;&gt;4</title>
<path fill="none" stroke="grey" stroke-width="2" d="M66.34,-287.7C73.29,-279.3 81.77,-269.07 89.4,-259.86"/>
<polygon fill="grey" stroke="grey" stroke-width="2" points="92.14,-262.04 95.83,-252.1 86.75,-257.57 92.14,-262.04"/>
</g>
<!-- 4&#45;&gt;2 -->
<g id="edge4" class="edge">
<title>4&#45;&gt;2</title>
<path fill="none" stroke="grey" stroke-width="2" d="M95.66,-215.7C88.71,-207.3 80.23,-197.07 72.6,-187.86"/>
<polygon fill="grey" stroke="grey" stroke-width="2" points="75.25,-185.57 66.17,-180.1 69.86,-190.04 75.25,-185.57"/>
</g>
<!-- 5 -->
<g id="node6" class="node">
<title>5</title>
<path fill="none" stroke="#56a9d8" stroke-width="2" d="M86.5,-396C86.5,-396 17.5,-396 17.5,-396 11.5,-396 5.5,-390 5.5,-384 5.5,-384 5.5,-372 5.5,-372 5.5,-366 11.5,-360 17.5,-360 17.5,-360 86.5,-360 86.5,-360 92.5,-360 98.5,-366 98.5,-372 98.5,-372 98.5,-384 98.5,-384 98.5,-390 92.5,-396 86.5,-396"/>
<text text-anchor="middle" x="52" y="-375.5" font-family="sans" font-size="10.00">snaptools_align</text>
</g>
<!-- 5&#45;&gt;3 -->
<g id="edge5" class="edge">
<title>5&#45;&gt;3</title>
<path fill="none" stroke="grey" stroke-width="2" d="M52,-359.7C52,-351.98 52,-342.71 52,-334.11"/>
<polygon fill="grey" stroke="grey" stroke-width="2" points="55.5,-334.1 52,-324.1 48.5,-334.1 55.5,-334.1"/>
</g>
</g>
</svg>
