<?xml version="1.0" encoding="UTF-8" standalone="no"?>
<!DOCTYPE svg PUBLIC "-//W3C//DTD SVG 1.1//EN"
 "http://www.w3.org/Graphics/SVG/1.1/DTD/svg11.dtd">
<!-- Generated by graphviz version 2.44.0 (0)
 -->
<!-- Title: snakemake_dag Pages: 1 -->
<svg width="288pt" height="260pt"
 viewBox="0.00 0.00 288.00 260.00" xmlns="http://www.w3.org/2000/svg" xmlns:xlink="http://www.w3.org/1999/xlink">
<g id="graph0" class="graph" transform="scale(1 1) rotate(0) translate(4 256)">
<title>snakemake_dag</title>
<polygon fill="white" stroke="transparent" points="-4,4 -4,-256 284,-256 284,4 -4,4"/>
<!-- 0 -->
<g id="node1" class="node">
<title>0</title>
<path fill="none" stroke="#d8bc56" stroke-width="2" d="M138,-36C138,-36 96,-36 96,-36 90,-36 84,-30 84,-24 84,-24 84,-12 84,-12 84,-6 90,0 96,0 96,0 138,0 138,0 144,0 150,-6 150,-12 150,-12 150,-24 150,-24 150,-30 144,-36 138,-36"/>
<text text-anchor="middle" x="117" y="-15.5" font-family="sans" font-size="10.00">targetfiles</text>
</g>
<!-- 1 -->
<g id="node2" class="node">
<title>1</title>
<path fill="none" stroke="#56c1d8" stroke-width="2" d="M74,-108C74,-108 12,-108 12,-108 6,-108 0,-102 0,-96 0,-96 0,-84 0,-84 0,-78 6,-72 12,-72 12,-72 74,-72 74,-72 80,-72 86,-78 86,-84 86,-84 86,-96 86,-96 86,-102 80,-108 74,-108"/>
<text text-anchor="middle" x="43" y="-87.5" font-family="sans" font-size="10.00">sort_fragment</text>
</g>
<!-- 1&#45;&gt;0 -->
<g id="edge2" class="edge">
<title>1&#45;&gt;0</title>
<path fill="none" stroke="grey" stroke-width="2" d="M61.29,-71.7C70.43,-63.05 81.64,-52.45 91.6,-43.03"/>
<polygon fill="grey" stroke="grey" stroke-width="2" points="94.06,-45.52 98.92,-36.1 89.25,-40.43 94.06,-45.52"/>
</g>
<!-- 2 -->
<g id="node3" class="node">
<title>2</title>
<path fill="none" stroke="#56d88a" stroke-width="2" d="M268,-108C268,-108 116,-108 116,-108 110,-108 104,-102 104,-96 104,-96 104,-84 104,-84 104,-78 110,-72 116,-72 116,-72 268,-72 268,-72 274,-72 280,-78 280,-84 280,-84 280,-96 280,-96 280,-102 274,-108 268,-108"/>
<text text-anchor="middle" x="192" y="-87.5" font-family="sans" font-size="10.00">extract_barcode_based_on_knee</text>
</g>
<!-- 2&#45;&gt;0 -->
<g id="edge1" class="edge">
<title>2&#45;&gt;0</title>
<path fill="none" stroke="grey" stroke-width="2" d="M173.46,-71.7C164.2,-63.05 152.84,-52.45 142.74,-43.03"/>
<polygon fill="grey" stroke="grey" stroke-width="2" points="145.02,-40.37 135.33,-36.1 140.25,-45.49 145.02,-40.37"/>
</g>
<!-- 3 -->
<g id="node4" class="node">
<title>3</title>
<path fill="none" stroke="#d85656" stroke-width="2" d="M157,-180C157,-180 77,-180 77,-180 71,-180 65,-174 65,-168 65,-168 65,-156 65,-156 65,-150 71,-144 77,-144 77,-144 157,-144 157,-144 163,-144 169,-150 169,-156 169,-156 169,-168 169,-168 169,-174 163,-180 157,-180"/>
<text text-anchor="middle" x="117" y="-159.5" font-family="sans" font-size="10.00">bam_to_fragment</text>
</g>
<!-- 3&#45;&gt;1 -->
<g id="edge3" class="edge">
<title>3&#45;&gt;1</title>
<path fill="none" stroke="grey" stroke-width="2" d="M98.71,-143.7C89.57,-135.05 78.36,-124.45 68.4,-115.03"/>
<polygon fill="grey" stroke="grey" stroke-width="2" points="70.75,-112.43 61.08,-108.1 65.94,-117.52 70.75,-112.43"/>
</g>
<!-- 3&#45;&gt;2 -->
<g id="edge4" class="edge">
<title>3&#45;&gt;2</title>
<path fill="none" stroke="grey" stroke-width="2" d="M135.54,-143.7C144.8,-135.05 156.16,-124.45 166.26,-115.03"/>
<polygon fill="grey" stroke="grey" stroke-width="2" points="168.75,-117.49 173.67,-108.1 163.98,-112.37 168.75,-117.49"/>
</g>
<!-- 4 -->
<g id="node5" class="node">
<title>4</title>
<path fill="none" stroke="#88d856" stroke-width="2" d="M151.5,-252C151.5,-252 82.5,-252 82.5,-252 76.5,-252 70.5,-246 70.5,-240 70.5,-240 70.5,-228 70.5,-228 70.5,-222 76.5,-216 82.5,-216 82.5,-216 151.5,-216 151.5,-216 157.5,-216 163.5,-222 163.5,-228 163.5,-228 163.5,-240 163.5,-240 163.5,-246 157.5,-252 151.5,-252"/>
<text text-anchor="middle" x="117" y="-231.5" font-family="sans" font-size="10.00">snaptools_align</text>
</g>
<!-- 4&#45;&gt;3 -->
<g id="edge5" class="edge">
<title>4&#45;&gt;3</title>
<path fill="none" stroke="grey" stroke-width="2" d="M117,-215.7C117,-207.98 117,-198.71 117,-190.11"/>
<polygon fill="grey" stroke="grey" stroke-width="2" points="120.5,-190.1 117,-180.1 113.5,-190.1 120.5,-190.1"/>
</g>
</g>
</svg>
